<?xml version="1.0" standalone="no"?>
<!DOCTYPE svg PUBLIC "-//W3C//DTD SVG 20010904//EN"
 "http://www.w3.org/TR/2001/REC-SVG-20010904/DTD/svg10.dtd">
<svg version="1.0" xmlns="http://www.w3.org/2000/svg"
 width="1857.000000pt" height="1762.000000pt" viewBox="0 0 1857.000000 1762.000000"
 preserveAspectRatio="xMidYMid meet">

<g transform="translate(0.000000,1762.000000) scale(0.100000,-0.100000)"
fill="#000000" stroke="none">
<path d="M12065 16851 l-1440 -6 -31 -22 c-20 -14 -76 -103 -173 -272 l-144
-251 -961 -1 c-1120 0 -1405 -7 -1552 -38 -56 -12 -118 -28 -138 -36 -19 -8
-44 -15 -55 -15 -11 0 -40 -9 -63 -19 -24 -11 -117 -52 -208 -92 -305 -132
-740 -369 -1105 -602 -126 -80 -160 -109 -335 -281 -107 -105 -377 -367 -600
-581 -427 -411 -592 -573 -1335 -1300 -253 -248 -608 -596 -790 -774 -181
-178 -340 -340 -352 -360 -27 -43 -29 -95 -9 -207 8 -44 17 -126 21 -184 3
-58 10 -127 15 -155 5 -27 16 -108 24 -180 8 -71 22 -186 30 -255 22 -190 36
-312 51 -455 8 -71 19 -155 25 -185 6 -30 15 -116 21 -190 5 -74 16 -166 24
-204 13 -63 13 -72 -2 -95 -8 -13 -82 -92 -162 -175 -144 -149 -719 -750 -876
-916 -45 -47 -137 -146 -205 -220 -68 -74 -237 -252 -374 -395 -390 -405 -568
-597 -582 -632 -31 -73 -9 -132 74 -199 33 -27 189 -137 346 -244 158 -107
385 -262 504 -343 119 -82 234 -160 255 -173 21 -14 40 -31 43 -38 3 -8 -59
-108 -138 -222 -521 -757 -523 -761 -512 -822 4 -20 11 -46 17 -57 13 -26 120
-124 220 -204 42 -34 77 -68 77 -76 0 -7 -27 -49 -60 -92 -33 -43 -93 -121
-132 -173 -40 -52 -120 -156 -179 -230 -188 -238 -198 -267 -136 -371 40 -66
315 -500 443 -700 52 -80 94 -150 94 -157 0 -6 -10 -17 -22 -23 -13 -7 -86
-56 -163 -111 -77 -54 -192 -134 -255 -178 -429 -299 -449 -314 -471 -358 -30
-61 -21 -107 37 -201 26 -42 90 -147 143 -234 53 -86 114 -186 136 -222 64
-103 177 -288 277 -452 285 -464 294 -478 340 -487 12 -2 59 -12 103 -20 221
-44 490 -76 1060 -127 214 -19 308 -22 860 -22 477 0 626 3 644 12 13 8 74 14
149 16 167 5 408 21 420 29 5 3 87 13 182 21 95 8 177 18 182 21 5 4 60 10
122 15 62 4 155 17 207 28 52 11 146 27 209 36 63 9 158 27 210 40 52 13 122
26 155 30 33 4 80 13 105 20 25 7 101 25 170 40 147 31 158 33 315 74 165 43
280 77 545 161 240 76 297 99 328 130 15 15 92 135 172 266 80 131 185 304
234 384 49 80 117 192 151 250 34 58 96 159 137 225 42 66 133 215 203 330 70
116 183 300 250 410 67 110 164 269 216 353 54 90 102 157 114 162 11 4 88 13
170 19 83 7 215 18 295 26 80 8 201 20 270 25 69 6 152 15 186 20 33 6 137 14
230 20 93 5 248 19 344 29 332 38 468 51 626 61 88 6 166 12 174 15 8 2 94 11
190 20 96 8 200 19 230 25 67 12 395 31 414 24 11 -4 44 -78 141 -314 12 -30
42 -104 65 -165 24 -60 62 -155 85 -210 23 -55 61 -149 85 -210 23 -60 56
-139 72 -174 16 -36 38 -90 48 -122 11 -31 35 -92 53 -135 41 -94 105 -252
142 -349 15 -38 35 -88 45 -110 23 -53 89 -216 138 -340 65 -164 183 -459 192
-480 5 -11 32 -76 60 -145 28 -69 62 -150 75 -181 28 -63 31 -87 13 -94 -21
-7 -4104 -14 -4116 -6 -5 3 -23 34 -39 67 -40 82 -75 127 -133 168 -95 69
-188 100 -295 100 -137 1 -261 -48 -350 -137 -72 -73 -104 -136 -126 -246 -19
-95 -19 -112 9 -246 25 -118 126 -234 262 -299 84 -41 86 -41 200 -41 113 0
116 1 193 38 101 50 194 136 239 222 l33 65 180 1 c99 1 1094 2 2210 3 1647 1
2034 3 2053 14 40 23 82 91 82 134 0 35 -38 147 -95 278 -46 106 -94 226 -124
308 -17 45 -37 95 -45 111 -9 16 -22 46 -29 67 -8 22 -47 120 -86 219 -64 160
-88 219 -136 330 -7 17 -34 84 -60 150 -26 66 -64 162 -86 213 -21 51 -39 96
-39 100 0 4 -6 18 -13 32 -7 14 -28 63 -46 110 -33 86 -92 228 -137 331 -13
31 -24 60 -24 64 0 4 -6 21 -14 38 -8 18 -19 46 -24 62 -6 17 -24 62 -40 100
-16 39 -48 115 -72 170 -23 55 -46 114 -50 130 -11 38 -166 410 -187 449 -16
29 -15 30 13 53 16 14 124 88 239 167 453 306 1094 811 1079 850 -5 14 35 45
67 51 76 15 900 840 939 942 5 12 23 32 41 45 64 47 342 405 502 645 47 71 93
136 104 145 17 16 71 18 685 20 l666 3 27 25 c14 13 34 38 44 55 10 16 43 73
74 125 71 121 325 562 429 745 44 77 110 192 147 255 61 103 218 374 346 598
45 79 47 86 43 145 -5 62 -26 106 -177 359 -42 70 -407 702 -732 1268 -75 129
-142 234 -170 262 l-45 48 -1090 0 c-1024 0 -1091 -1 -1116 -18 -14 -9 -36
-29 -47 -44 -18 -22 -134 -218 -216 -363 -13 -22 -49 -85 -80 -140 -32 -55
-67 -118 -80 -140 -12 -22 -67 -116 -122 -210 -55 -93 -135 -233 -179 -310
-214 -374 -307 -532 -327 -552 l-20 -23 -751 0 c-606 1 -754 3 -768 14 -18 13
-76 111 -325 546 -151 263 -173 295 -229 327 l-39 23 -941 -3 -940 -2 -40 -26
c-32 -22 -65 -71 -193 -295 -196 -342 -435 -755 -631 -1094 -142 -245 -154
-269 -154 -315 0 -46 11 -69 153 -315 84 -146 196 -339 247 -430 52 -91 98
-172 103 -180 12 -19 152 -258 167 -285 78 -140 252 -437 271 -461 46 -62 1
-59 1030 -58 692 1 950 4 970 13 48 19 72 57 297 452 36 63 73 123 84 132 16
15 63 17 462 17 501 1 448 10 496 -83 36 -69 130 -159 205 -195 129 -62 299
-65 427 -7 61 28 172 130 208 192 33 55 64 165 66 233 3 75 -29 194 -68 256
-40 64 -123 146 -181 178 -140 79 -359 72 -494 -15 -54 -35 -136 -120 -158
-165 -8 -16 -26 -44 -39 -61 l-23 -33 -335 0 c-212 0 -342 4 -355 10 -25 14
-24 32 4 67 23 28 45 65 260 438 137 237 151 267 143 310 -4 19 -57 121 -118
227 -146 254 -149 261 -140 270 5 5 307 8 672 8 535 0 667 -2 677 -13 14 -14
16 -16 270 -457 94 -162 237 -410 318 -550 82 -140 202 -349 268 -465 66 -115
133 -226 148 -246 41 -52 76 -59 313 -59 l206 0 0 -24 c0 -14 -12 -39 -27 -57
-15 -18 -55 -69 -88 -115 -92 -125 -226 -294 -354 -444 -129 -152 -769 -797
-906 -913 -479 -407 -811 -663 -1226 -943 l-233 -157 -76 -8 c-41 -4 -118 -12
-170 -18 -156 -18 -407 -42 -540 -51 -169 -13 -420 -37 -620 -61 -91 -10 -241
-24 -335 -29 -93 -6 -219 -17 -280 -25 -60 -8 -150 -17 -200 -20 -49 -4 -124
-11 -165 -16 -41 -5 -158 -16 -260 -24 -102 -8 -258 -22 -347 -31 -90 -9 -174
-14 -187 -10 -23 6 -35 27 -55 96 -5 19 -39 121 -75 225 -35 105 -69 204 -75
220 -13 39 -78 229 -126 370 -20 61 -43 130 -51 155 -7 25 -28 88 -47 140 -46
126 -106 304 -123 360 -7 25 -45 137 -84 250 -40 113 -75 219 -80 235 -5 17
-43 129 -85 250 -42 121 -80 234 -85 250 -4 17 -21 68 -38 115 -16 47 -56 166
-90 265 -33 99 -118 347 -187 550 -70 204 -135 395 -145 425 -42 129 -50 138
-200 218 -320 169 -368 195 -460 247 -99 56 -471 255 -476 255 -2 0 -21 10
-42 23 -20 13 -82 47 -137 76 -184 98 -269 144 -465 252 -107 59 -246 134
-309 167 -63 33 -118 68 -123 77 -7 12 -1 25 24 54 18 20 60 72 93 116 33 43
80 103 105 134 25 31 63 81 85 111 22 30 69 91 104 134 94 117 101 132 101
203 0 88 -24 112 -202 203 -79 40 -183 94 -233 120 -49 26 -313 160 -585 298
-272 137 -553 280 -625 317 -71 36 -296 151 -500 254 -203 104 -458 233 -565
288 -107 55 -202 102 -210 105 -40 13 -36 16 980 1008 234 228 744 730 1133
1115 390 385 713 702 718 703 18 7 39 -20 39 -48 0 -15 9 -58 21 -95 11 -37
24 -88 29 -114 5 -25 41 -170 80 -321 40 -151 78 -300 85 -330 28 -117 137
-547 150 -590 7 -25 25 -97 41 -160 15 -63 33 -135 40 -160 7 -25 25 -94 39
-155 15 -60 35 -139 45 -175 10 -36 28 -108 40 -160 29 -119 65 -242 79 -268
18 -34 74 -62 125 -62 55 0 110 25 102 45 -3 9 0 12 8 9 18 -7 58 79 79 166 9
36 25 99 37 140 12 41 28 100 36 130 8 30 23 82 33 115 10 33 29 96 40 140 29
107 45 164 76 260 14 44 25 88 25 97 0 10 11 50 24 90 13 40 34 111 47 158 12
47 36 130 52 185 16 55 35 126 42 157 7 31 20 76 29 100 8 24 39 129 67 233
29 105 62 226 74 270 25 93 73 259 123 430 19 66 38 136 42 155 7 31 59 216
110 390 10 36 29 101 41 145 56 201 70 243 87 250 9 5 475 10 1034 13 1139 5
1057 10 1005 -66 -42 -63 -69 -108 -232 -392 -86 -151 -170 -295 -185 -320
-16 -25 -57 -97 -93 -160 -35 -63 -103 -182 -151 -263 -48 -82 -98 -167 -110
-190 -13 -23 -52 -92 -88 -154 -76 -127 -108 -196 -108 -228 0 -32 32 -101
107 -229 36 -61 132 -226 213 -366 81 -140 231 -401 335 -580 103 -179 226
-392 273 -475 97 -171 86 -151 224 -390 58 -99 133 -229 167 -290 111 -196
145 -245 190 -276 l44 -29 1472 0 1472 0 40 29 c27 20 59 62 105 142 36 63
142 247 235 409 167 289 232 402 238 408 4 4 1316 4 1320 0 1 -2 15 -28 31
-58 38 -71 145 -180 209 -212 58 -29 166 -58 217 -58 52 0 125 16 193 41 43
16 73 37 110 75 28 30 55 54 59 54 29 0 95 117 112 197 48 228 -35 426 -226
537 -80 47 -151 60 -291 52 -98 -5 -111 -8 -170 -41 -82 -47 -170 -133 -209
-206 -17 -32 -35 -61 -41 -64 -6 -5 -992 -9 -1111 -5 -18 0 -6 45 21 83 29 40
146 243 472 812 82 142 156 263 164 267 8 5 314 9 681 9 736 0 695 3 708 -63
4 -21 34 -58 94 -117 69 -69 99 -91 148 -109 181 -70 378 -35 510 90 119 112
157 198 156 358 0 96 -3 113 -31 181 -44 103 -88 159 -168 211 -103 68 -183
91 -301 86 -90 -4 -104 -7 -182 -46 -104 -51 -178 -122 -223 -213 l-32 -64
-665 -3 c-366 -1 -674 0 -686 2 -12 4 -33 31 -56 73 -19 37 -69 124 -110 193
-41 69 -90 154 -110 190 -19 36 -89 157 -155 270 -66 113 -166 286 -223 385
-57 99 -118 202 -137 230 -41 61 -42 75 -4 75 16 0 31 5 33 11 3 8 90 11 303
11 165 0 318 3 340 7 49 9 75 4 75 -14 0 -11 21 -13 93 -12 50 0 131 0 180 -1
85 -2 88 -3 99 -29 23 -52 76 -128 115 -164 85 -81 222 -139 328 -139 181 0
372 122 445 285 26 58 31 84 36 184 6 111 5 119 -21 186 -70 177 -205 284
-381 303 -158 18 -269 -13 -382 -105 -46 -38 -132 -148 -132 -170 0 -7 -11
-20 -24 -28 -20 -14 -104 -16 -670 -16 -479 0 -651 3 -661 11 -8 7 -27 37 -41
68 -15 32 -61 115 -104 187 -42 71 -109 189 -150 260 -41 72 -82 142 -92 156
-28 37 -68 57 -124 61 -27 2 -697 2 -1489 -1z m1409 -305 c13 -17 41 -62 63
-101 22 -38 70 -119 107 -179 46 -75 64 -112 57 -119 -7 -7 -316 -11 -943 -12
-727 -1 -938 -4 -956 -14 -12 -6 -36 -30 -52 -53 -52 -71 -35 -154 43 -212 28
-21 31 -21 1055 -23 l1027 -2 24 -30 c14 -16 77 -120 140 -230 317 -550 535
-925 608 -1048 31 -53 53 -99 49 -108 -5 -13 -226 -15 -1923 -15 l-1918 0 -39
-23 c-97 -56 -100 -188 -5 -259 23 -17 109 -18 1944 -23 1056 -3 1926 -5 1933
-5 19 0 14 -27 -15 -73 -15 -23 -83 -139 -151 -257 -69 -118 -181 -312 -250
-430 -68 -118 -131 -226 -138 -240 -8 -14 -33 -56 -57 -95 l-42 -70 -1037 -5
c-1027 -5 -1037 -5 -1064 -26 -43 -31 -65 -67 -71 -112 -8 -57 25 -121 76
-150 l39 -22 926 0 c853 0 927 -1 933 -17 3 -9 0 -27 -8 -39 -14 -23 -166
-282 -287 -489 -35 -60 -71 -118 -80 -127 -14 -17 -91 -18 -1336 -18 -1163 0
-1324 2 -1343 15 -12 8 -41 50 -64 93 -23 42 -87 154 -142 247 -55 94 -111
190 -125 215 -14 25 -65 115 -115 200 -49 85 -155 270 -235 410 -79 140 -155
271 -167 290 -13 19 -78 132 -145 250 -132 232 -278 482 -316 542 -24 38 -32
96 -15 114 11 11 108 176 229 389 102 180 102 180 187 325 37 63 75 129 85
145 9 17 70 122 135 235 240 417 386 671 523 910 77 135 148 253 158 263 17
17 85 18 1346 16 l1329 -1 23 -32z m-136 -453 c-10 -2 -26 -2 -35 0 -10 3 -2
5 17 5 19 0 27 -2 18 -5z m-5682 -177 c3 -8 0 -24 -6 -35 -6 -12 -20 -54 -30
-94 -11 -39 -27 -97 -35 -127 -9 -30 -25 -86 -35 -125 -11 -38 -33 -117 -51
-175 -17 -58 -35 -123 -40 -145 -4 -22 -26 -103 -48 -180 -22 -77 -45 -156
-50 -175 -6 -19 -21 -72 -35 -118 -15 -46 -26 -89 -26 -96 0 -7 -9 -42 -19
-77 -30 -98 -65 -219 -111 -384 -71 -257 -91 -329 -105 -375 -13 -42 -73 -257
-131 -465 -46 -167 -59 -200 -80 -200 -16 0 -20 9 -25 60 -3 33 -11 76 -17 95
-7 19 -16 55 -21 80 -5 25 -24 99 -41 165 -18 66 -38 145 -45 175 -7 30 -25
100 -40 155 -15 55 -33 127 -40 160 -7 33 -25 105 -40 160 -57 213 -117 452
-125 497 -5 27 -11 52 -14 56 -6 10 -52 179 -71 262 -7 30 -22 89 -34 130 -11
41 -18 81 -15 90 4 14 81 61 348 219 50 29 118 68 151 86 33 18 83 45 110 61
28 17 115 63 195 103 80 41 150 77 155 81 6 4 64 31 130 59 66 29 136 61 155
71 42 23 79 26 86 6z m-4491 -4085 c3 -6 38 -27 78 -47 230 -118 1219 -620
1657 -842 91 -46 253 -129 360 -184 335 -173 425 -218 437 -218 22 0 36 -39
21 -60 -7 -10 -69 -91 -138 -180 -69 -90 -155 -203 -193 -251 -37 -49 -74 -89
-82 -89 -8 0 -70 26 -137 59 -68 32 -160 72 -205 89 -44 18 -150 63 -235 101
-253 114 -475 211 -483 211 -7 0 -270 114 -629 273 -34 15 -69 22 -112 22 -56
0 -67 -4 -95 -30 -17 -17 -52 -61 -77 -98 -41 -63 -66 -87 -77 -75 -2 2 -7 46
-10 97 -3 51 -11 136 -19 189 -8 53 -17 133 -21 177 -3 44 -12 127 -20 185 -8
58 -17 134 -20 170 -4 36 -13 106 -20 155 -7 50 -17 135 -20 190 -4 55 -11
110 -16 123 -5 13 -7 28 -3 33 7 12 51 12 59 0z m13648 -781 c22 -36 101 -171
175 -300 74 -129 162 -282 197 -340 34 -58 104 -179 155 -270 51 -91 119 -208
150 -260 31 -52 90 -152 131 -223 41 -70 81 -139 89 -152 13 -23 13 -28 -1
-53 -72 -121 -465 -796 -624 -1072 -84 -146 -189 -326 -233 -400 l-79 -135
-941 -3 -942 -2 -23 37 c-13 21 -53 88 -87 148 -35 61 -87 151 -116 200 -259
448 -345 596 -366 635 -40 73 -197 341 -230 392 -54 86 -96 80 536 78 422 0
564 -4 575 -13 8 -7 23 -32 34 -57 12 -26 52 -76 96 -120 63 -63 89 -81 151
-105 68 -27 86 -30 190 -30 108 0 119 2 183 32 74 35 147 88 147 106 0 7 10
17 23 22 14 6 39 45 70 105 l47 94 0 114 c0 103 -3 120 -30 185 -58 138 -156
231 -294 277 -56 18 -84 21 -174 18 -102 -3 -112 -5 -188 -42 -95 -47 -179
-127 -219 -210 -15 -31 -36 -61 -46 -66 -11 -6 -227 -9 -571 -8 -529 3 -553 4
-556 22 -2 10 9 37 25 60 16 22 74 118 128 211 53 94 130 226 170 295 76 130
90 156 145 255 19 33 41 71 50 85 14 20 153 260 230 395 39 68 83 141 92 153
8 9 206 12 951 10 l940 -3 40 -65z m-13160 -719 c118 -56 232 -103 277 -115
29 -7 46 -17 48 -28 3 -17 -8 -18 -135 -17 -76 1 -192 4 -258 8 -144 7 -147
11 -81 101 25 34 46 66 46 71 0 17 41 9 103 -20z m7782 -133 c43 -60 316 -541
313 -550 -3 -8 -95 -11 -309 -10 -371 3 -401 0 -446 -42 -63 -58 -71 -138 -21
-209 41 -57 38 -57 511 -57 400 0 436 -1 455 -17 17 -15 80 -119 192 -317 9
-17 38 -65 64 -107 53 -85 53 -79 -14 -192 -54 -91 -64 -108 -200 -342 -70
-121 -145 -249 -167 -285 l-40 -65 -469 -5 -469 -5 -34 -24 c-62 -44 -80 -139
-38 -202 12 -19 42 -44 67 -57 45 -23 48 -23 395 -21 l350 2 3 -22 c2 -13 -3
-30 -11 -39 -8 -9 -40 -62 -71 -117 -31 -55 -66 -108 -78 -117 -19 -17 -72
-18 -813 -18 -740 0 -794 1 -814 18 -11 9 -121 193 -244 407 -123 215 -292
509 -377 655 -84 146 -164 284 -177 308 l-25 43 80 132 c43 73 134 229 202
347 67 118 135 235 150 260 15 25 39 65 53 90 83 150 316 552 327 565 11 13
109 15 826 15 l813 0 16 -22z m-7450 -342 c165 -9 422 -20 572 -26 254 -9 276
-12 340 -36 37 -14 83 -30 101 -35 17 -6 32 -12 32 -14 0 -20 -24 -44 -84 -85
-39 -27 -120 -86 -181 -130 -60 -44 -144 -105 -185 -134 -83 -60 -150 -109
-345 -251 -71 -52 -213 -155 -315 -228 -102 -73 -302 -218 -445 -322 -143
-104 -270 -190 -282 -193 -26 -5 -28 5 -13 58 6 19 15 103 20 185 14 215 38
498 61 735 11 113 23 261 25 330 3 69 7 136 10 149 l5 24 192 -6 c106 -3 327
-13 492 -21z m1495 -336 c61 -35 204 -112 415 -225 120 -63 195 -104 480 -258
236 -128 274 -149 378 -206 160 -87 546 -291 553 -291 12 0 54 -42 54 -55 0
-6 -13 -18 -29 -28 -27 -16 -112 -85 -311 -251 -41 -35 -120 -100 -175 -144
-55 -45 -140 -115 -190 -157 -79 -67 -206 -171 -448 -368 -40 -32 -112 -93
-162 -136 -49 -42 -121 -101 -160 -131 -38 -30 -119 -97 -180 -149 -60 -52
-173 -146 -250 -208 -217 -176 -285 -231 -350 -287 -33 -29 -96 -80 -140 -114
-44 -34 -112 -90 -151 -125 -127 -112 -248 -212 -304 -252 -30 -21 -80 -62
-110 -90 -30 -29 -89 -78 -130 -110 -41 -32 -95 -77 -120 -100 -25 -23 -70
-59 -100 -81 -55 -39 -265 -213 -351 -292 -74 -68 -88 -59 -108 73 -7 44 -21
127 -31 185 -11 58 -22 128 -26 155 -4 28 -11 55 -16 62 -5 6 -9 27 -10 45 0
40 -25 194 -33 208 -3 5 -10 46 -15 91 -5 44 -14 95 -19 112 -5 18 -15 68 -21
112 -6 44 -20 127 -30 185 -10 58 -25 150 -35 205 -9 55 -25 143 -36 195 -11
52 -23 127 -28 165 -8 65 -32 200 -66 370 -8 39 -17 97 -21 130 -3 33 -12 82
-20 109 -8 27 -14 66 -14 86 0 34 5 40 68 83 37 25 139 98 227 161 88 64 178
129 200 144 22 16 114 82 204 148 90 65 201 146 247 179 45 33 122 89 171 124
48 35 117 84 153 109 36 25 101 73 146 106 44 34 114 84 155 113 102 71 361
259 494 358 61 45 117 85 125 88 22 8 47 -1 120 -43z m-2660 -87 c0 -4 -4 -20
-10 -37 -29 -92 -60 -199 -75 -256 -19 -75 -46 -170 -80 -285 -22 -75 -97
-341 -131 -465 -8 -30 -25 -84 -36 -120 -12 -36 -24 -81 -28 -100 -4 -19 -24
-91 -44 -160 -20 -69 -43 -152 -52 -185 -9 -33 -27 -96 -40 -140 -24 -82 -55
-192 -93 -325 -12 -41 -29 -100 -38 -130 -9 -30 -21 -80 -27 -110 -16 -74 -35
-76 -120 -13 -35 26 -124 89 -196 138 -73 50 -201 137 -284 195 -84 58 -202
139 -264 180 -68 45 -114 83 -118 96 -4 17 8 36 60 88 36 36 66 72 66 80 0 8
92 104 204 213 112 109 286 286 387 393 101 107 256 269 344 360 160 165 390
411 495 528 49 55 80 76 80 55z m47 -1140 c-3 -32 -11 -92 -17 -133 -17 -110
-18 -104 84 -665 14 -77 37 -207 52 -290 14 -82 34 -199 45 -260 10 -60 26
-153 35 -205 9 -52 23 -126 31 -165 8 -38 19 -101 24 -140 6 -38 16 -92 24
-120 7 -27 21 -102 29 -165 29 -203 46 -294 65 -331 25 -47 14 -69 -23 -49
-14 7 -33 25 -42 39 -18 29 -98 136 -255 344 -57 76 -133 178 -169 227 -36 49
-125 168 -198 264 -73 97 -135 182 -138 189 -2 7 5 36 16 63 12 27 25 67 29
89 5 22 24 94 43 160 20 66 38 129 41 140 6 26 113 401 153 535 7 25 22 77 33
115 10 39 29 102 40 142 12 39 21 84 21 100 0 15 9 44 19 64 11 20 23 54 27
75 8 49 14 58 26 46 6 -6 8 -35 5 -69z m4467 -330 c-15 -48 -33 -113 -40 -143
-12 -51 -28 -106 -121 -430 -19 -69 -39 -141 -43 -160 -4 -19 -24 -91 -43
-160 -20 -69 -53 -181 -72 -250 -20 -69 -43 -150 -50 -180 -7 -30 -25 -95 -40
-145 -15 -49 -33 -112 -40 -140 -7 -27 -29 -106 -48 -175 -20 -69 -57 -199
-82 -290 -25 -91 -50 -181 -56 -200 -26 -89 -62 -218 -69 -250 -4 -19 -26
-100 -49 -180 -23 -80 -49 -170 -57 -200 -8 -30 -26 -89 -39 -131 -14 -42 -25
-84 -25 -94 0 -38 -46 -158 -65 -169 -15 -9 -74 -10 -230 -5 -115 4 -351 9
-523 11 l-313 3 -40 -42 c-36 -39 -39 -46 -39 -102 0 -57 3 -64 51 -127 47
-63 97 -120 254 -294 33 -37 92 -107 130 -156 39 -49 108 -131 155 -184 47
-52 106 -120 130 -150 25 -30 79 -93 121 -140 42 -47 109 -126 150 -176 112
-139 303 -357 338 -387 17 -14 31 -29 31 -34 0 -12 239 -297 425 -507 44 -50
100 -116 125 -146 24 -30 63 -76 87 -102 24 -26 43 -53 43 -61 0 -9 -18 -18
-47 -25 -27 -6 -86 -23 -133 -37 -79 -25 -308 -88 -410 -113 -25 -7 -109 -28
-188 -47 -78 -20 -177 -42 -220 -50 -102 -19 -268 -53 -312 -65 -19 -5 -73
-14 -120 -19 -47 -6 -116 -18 -155 -26 -91 -20 -245 -41 -425 -60 -80 -9 -158
-20 -175 -25 -16 -5 -88 -12 -160 -15 -71 -3 -148 -9 -170 -15 -36 -8 -351
-29 -415 -27 -14 0 -176 -3 -360 -7 -396 -10 -1149 7 -1280 29 -47 7 -150 19
-230 25 -80 6 -152 13 -160 15 -15 5 -273 35 -297 35 -25 0 -12 42 61 187 95
190 207 421 433 893 121 251 180 374 248 515 37 77 94 194 125 260 32 66 132
272 224 458 91 187 166 341 166 343 0 2 52 110 116 241 245 502 218 455 297
525 40 35 92 79 117 98 25 19 77 62 115 95 39 34 102 86 140 116 77 59 203
164 299 248 33 29 86 72 116 94 30 22 87 68 125 102 39 33 97 82 130 107 33
25 89 72 125 105 36 32 117 99 180 148 63 49 153 123 200 164 47 42 125 108
173 146 98 78 237 192 397 325 58 48 146 121 196 161 50 41 144 119 209 174
65 55 139 116 166 136 27 20 88 70 135 110 86 74 120 102 361 299 254 207 368
303 388 326 25 28 79 57 83 44 2 -5 -9 -49 -24 -97z m378 -83 c9 -36 55 -177
103 -315 47 -137 93 -270 100 -295 8 -25 55 -164 106 -310 50 -146 98 -285
105 -310 8 -25 34 -103 58 -175 133 -386 269 -785 280 -825 8 -25 44 -130 81
-235 37 -104 73 -210 80 -235 8 -25 46 -137 85 -250 110 -317 114 -330 104
-340 -9 -9 -384 -1 -989 20 -165 6 -472 15 -683 20 -210 5 -387 12 -392 15
-16 10 -12 40 15 111 14 36 25 76 25 88 0 11 11 54 24 96 14 41 41 136 61 210
20 74 47 171 60 215 12 44 28 100 34 125 7 25 21 77 33 115 11 39 28 102 38
140 10 39 31 115 48 170 16 55 34 120 40 145 5 25 24 90 40 146 17 55 35 118
40 140 5 21 26 95 45 164 20 69 57 199 82 290 53 191 78 279 106 370 10 36 19
71 19 79 0 8 9 42 19 75 21 64 41 136 87 301 15 55 33 117 40 139 8 21 18 65
24 98 17 111 56 119 82 18z m-5420 -1422 c25 -29 94 -119 154 -200 60 -82 138
-187 174 -236 36 -48 92 -122 125 -164 33 -41 101 -131 152 -199 50 -68 114
-153 142 -189 28 -36 75 -99 105 -140 30 -41 79 -105 109 -143 31 -37 58 -76
62 -86 4 -13 -26 -85 -88 -213 -52 -106 -99 -205 -105 -220 -6 -16 -49 -53
-109 -94 -54 -38 -156 -110 -228 -161 -150 -106 -244 -172 -407 -286 -263
-184 -369 -260 -374 -268 -15 -24 -44 -5 -81 54 -22 34 -107 166 -188 292 -81
127 -170 264 -196 306 -27 42 -49 83 -49 91 0 8 28 50 63 93 83 104 170 216
272 353 49 64 92 112 102 112 9 0 50 -31 92 -68 42 -38 108 -92 146 -122 39
-29 86 -68 105 -86 90 -83 162 -104 230 -69 73 38 105 153 60 220 -19 28 -177
166 -370 322 -52 42 -134 111 -181 152 -47 42 -129 112 -182 156 -106 88 -114
104 -73 152 13 16 68 94 122 173 53 80 143 212 198 293 56 81 111 166 124 187
13 22 29 40 37 40 7 0 33 -24 57 -52z m3913 -2113 c160 -3 466 -13 680 -21
215 -8 588 -19 830 -24 461 -10 1011 -29 1033 -35 23 -8 12 -37 -51 -133 -35
-54 -97 -152 -138 -220 -41 -68 -92 -154 -115 -190 -62 -102 -288 -471 -376
-617 -44 -71 -133 -218 -199 -325 -66 -107 -161 -264 -211 -347 -60 -100 -98
-153 -109 -153 -16 0 -220 227 -389 434 -47 57 -114 137 -151 177 -36 41 -97
112 -136 159 -39 47 -93 108 -119 137 -27 28 -80 91 -119 140 -102 129 -342
399 -376 423 -16 12 -29 26 -29 32 0 15 -120 167 -222 280 -47 53 -110 126
-139 162 -29 36 -57 66 -61 66 -7 0 -38 59 -38 73 0 1 33 0 73 -4 39 -4 203
-10 362 -14z m-3438 -407 c-18 -35 -63 -126 -99 -203 -37 -77 -134 -277 -216
-445 -82 -168 -165 -339 -185 -380 -19 -41 -84 -176 -145 -300 -293 -601 -332
-682 -332 -694 0 -20 -20 -34 -41 -29 -11 3 -28 22 -38 42 -19 39 -216 364
-285 471 -23 36 -82 130 -131 210 -48 80 -103 168 -122 197 -19 29 -32 56 -29
62 4 5 70 54 149 109 78 54 169 117 202 140 33 23 85 60 115 82 30 23 82 59
115 82 33 23 121 84 195 136 74 53 182 128 240 169 58 40 170 119 250 175 80
57 166 116 190 132 25 16 66 46 91 68 26 21 60 45 75 53 42 22 43 0 1 -77z"/>
</g>
</svg>
